<?xml version="1.0" encoding="utf-8"?>
<!-- Generator: Adobe Illustrator 21.0.2, SVG Export Plug-In . SVG Version: 6.00 Build 0)  -->
<svg version="1.1" id="Layer_1" xmlns="http://www.w3.org/2000/svg" xmlns:xlink="http://www.w3.org/1999/xlink" x="0px" y="0px"
	 viewBox="0 0 151 29.976" style="enable-background:new 0 0 151 29.976;" xml:space="preserve">
<style type="text/css">
	.st0{fill:#FFFFFF;}
	.st1{fill:#DD2C36;}
	.st2{fill:#F46A25;}
</style>
<g>
	<circle class="st0" cx="14.5438" cy="14.988" r="12.7094"/>
	<path class="st1" d="M14.6959,0.292C6.5794,0.292,0,6.8713,0,14.988c0,8.1167,6.5794,14.696,14.6959,14.696
		c8.1164,0,14.6957-6.5794,14.6957-14.696C29.3916,6.8713,22.8123,0.292,14.6959,0.292z M10.5527,24.0326
		c0,0,0-3.8422-3.7001-2.7515l6.4036-4.1741L10.5527,24.0326z M16.8606,20.4898c0,0,0-8.0703-7.7715-5.7789l13.4506-8.7678
		L16.8606,20.4898z"/>
	<g>
		<g>
			<g>
				<path class="st0" d="M44.3691,6.4349h-2.8385c-0.0098-0.3323-0.1317-0.5735-0.3664-0.7231s-0.6155-0.2244-1.1419-0.2244h-0.7116
					c-0.6497,0-1.0789,0.1188-1.2876,0.3564c-0.2087,0.2376-0.3132,0.8096-0.3132,1.7168v1.7453
					c0,0.8973,0.1045,1.4649,0.3132,1.7025c0.2087,0.2376,0.6379,0.3561,1.2876,0.3561h0.7897c0.5597,0,0.9497-0.0784,1.1705-0.235
					c0.2205-0.1566,0.3306-0.4275,0.3306-0.8122V9.904h-1.6221V7.9239h4.3897v1.8092c0,1.4344-0.3143,2.4802-0.9427,3.138
					c-0.6284,0.6578-1.621,0.9867-2.9775,0.9867h-1.928c-1.1951,0-2.1011-0.3788-2.7178-1.1363
					c-0.6166-0.7575-0.9248-1.8745-0.9248-3.3517V7.76c0-1.6526,0.325-2.8601,0.9746-3.6224
					c0.65-0.7623,1.6767-1.1433,3.0806-1.1433h1.5439c1.1383,0,2.0714,0.2838,2.7996,0.8511
					c0.7281,0.5676,1.092,1.2811,1.092,2.1406V6.4349z"/>
				<path class="st0" d="M46.0411,13.7294v-2.5216c0-0.7598,0.142-1.3702,0.4267-1.8308s0.7161-0.7741,1.2949-0.9405l3.0878-0.9332
					c0.3272-0.0997,0.5452-0.2124,0.6544-0.3381c0.109-0.1258,0.1636-0.3146,0.1636-0.5665V6.1712
					c0-0.3891-0.0902-0.6589-0.2703-0.8085C51.2177,5.2131,50.9,5.1383,50.4448,5.1383h-0.4695
					c-0.4508,0-0.7648,0.0773-0.9427,0.2317c-0.1779,0.1544-0.2667,0.4213-0.2667,0.8012v0.5984h-2.6253V5.8222
					c0-0.9116,0.2846-1.6109,0.8536-2.0978c0.5693-0.4866,1.3876-0.7301,2.4547-0.7301h1.5439c1.048,0,1.872,0.2457,2.4721,0.7371
					c0.6001,0.4917,0.9001,1.1649,0.9001,2.0196v0.8763c0,0.7788-0.1614,1.4058-0.4838,1.8807
					c-0.3227,0.4749-0.8088,0.8001-1.4585,0.9758l-3.0024,0.8052c-0.2373,0.0664-0.3984,0.146-0.4838,0.2384
					c-0.0852,0.0927-0.128,0.2364-0.128,0.4312v0.4202h5.4781v2.3508H46.0411z"/>
			</g>
			<path class="st2" d="M68.7011,5.1049h-4.7425v8.6001h-2.3911V5.1049h-4.7227v-1.866h11.8563V5.1049z"/>
			<path class="st2" d="M77.5447,13.7278h-8.5779v-8.453h8.4975v1.4417H70.898v1.8838h3.8303v1.4417H70.898v2.0967h6.6467V13.7278z"
				/>
			<path class="st2" d="M88.4561,11.7293c0,0.7861-0.1477,1.3161-0.4426,1.5889c-0.2953,0.2732-0.8344,0.4096-1.6174,0.4096h-4.9569
				c-0.7835,0-1.3225-0.1364-1.6174-0.4096c-0.2953-0.2728-0.4426-0.8028-0.4426-1.5889v-4.456
				c0-0.7862,0.1473-1.3159,0.4426-1.5889c0.2949-0.273,0.8339-0.4096,1.6174-0.4096h4.9569c0.9869,0,1.5986,0.235,1.8346,0.7045
				c0.1501,0.273,0.2254,0.972,0.2254,2.0967l-1.9314,0.3113V6.7818h-5.2143v5.3568h5.2143v-1.8182l1.9314,0.4094V11.7293z"/>
			<path class="st2" d="M100.2044,13.7278h-1.9472v-3.6368h-6.0353v3.6368h-1.9312v-8.453h1.9312V8.551h6.0353V5.2747h1.9472
				V13.7278z"/>
			<path class="st2" d="M115.2815,11.2304c0,0.9736-0.1862,1.6297-0.5579,1.9674c-0.372,0.3382-1.043,0.5071-2.0125,0.5071h-6.3568
				c-1.0495,0-1.7403-0.1892-2.0723-0.5678c-0.3322-0.3784-0.4982-1.1088-0.4982-2.1906l2.1123-0.4462v1.2373h7.2731V9.3441h-6.4163
				c-0.9699,0-1.6375-0.169-2.0026-0.5071c-0.3655-0.3377-0.5481-0.9938-0.5481-1.9674V5.7134c0-0.9736,0.1825-1.6292,0.5481-1.9674
				c0.3651-0.3379,1.0327-0.5071,2.0026-0.5071h5.8386c0.9828,0,1.6538,0.1724,2.0125,0.5173s0.5379,1.0111,0.5379,1.9978
				l-2.1123,0.5071V5.0645h-6.7352v2.2513h6.4165c0.9695,0,1.6405,0.1692,2.0125,0.5071c0.3717,0.3382,0.5579,0.9938,0.5579,1.9674
				V11.2304z"/>
			<path class="st2" d="M128.3001,11.6754c0,0.7986-0.1498,1.3366-0.4493,1.6136c-0.2999,0.2774-0.8473,0.416-1.6424,0.416h-6.21
				c-0.7956,0-1.343-0.1385-1.6424-0.416c-0.2999-0.277-0.4495-0.815-0.4495-1.6136V7.1508c0-0.7983,0.1496-1.3361,0.4495-1.6136
				c0.2995-0.277,0.8469-0.4157,1.6424-0.4157h6.21c0.7951,0,1.3426,0.1387,1.6424,0.4157
				c0.2995,0.2774,0.4493,0.8152,0.4493,1.6136V11.6754z M126.3391,12.0914V6.6519h-6.4716v5.4395H126.3391z"/>
			<path class="st2" d="M139.3115,6.6186h-6.5695v2.2623h3.5463v1.5636h-3.5463v3.2605h-1.9611V5.1215h8.5307V6.6186z"/>
			<path class="st2" d="M150.9422,6.6519h-3.8894v7.053h-1.9611v-7.053h-3.8731V5.1215h9.7236V6.6519z"/>
		</g>
		<g>
			<path class="st0" d="M81.0329,26.1584h-1.2803v-1.2716h-0.0314c-0.5571,0.9751-1.3769,1.4624-2.4594,1.4624
				c-0.7963,0-1.4195-0.2148-1.8697-0.6439c-0.4506-0.4291-0.6757-0.9986-0.6757-1.7086c0-1.5207,0.8797-2.4053,2.6391-2.6544
				l2.3971-0.3416c0-1.3831-0.5493-2.0745-1.6475-2.0745c-0.9631,0-1.8321,0.3337-2.6077,1.0015v-1.3352
				c0.7859-0.5084,1.6917-0.7628,2.7171-0.7628c1.8787,0,2.8183,1.0119,2.8183,3.0356V26.1584z M79.7526,22.0416l-1.9287,0.2705
				c-0.5931,0.0847-1.0408,0.2342-1.3427,0.4489c-0.3019,0.2143-0.4531,0.5947-0.4531,1.1403c0,0.3973,0.1392,0.7219,0.418,0.9734
				c0.2784,0.2519,0.6492,0.3775,1.1126,0.3775c0.6348,0,1.1593-0.2263,1.5731-0.6794c0.4138-0.4531,0.6207-1.0263,0.6207-1.7206
				V22.0416z"/>
			<g>
				<rect x="35.7575" y="16.8597" class="st0" width="1.2299" height="9.3834"/>
				<path class="st0" d="M46.1887,19.3397c-0.921,0-1.6359,0.4175-2.1282,1.2419c-0.1359-0.3416-0.3515-0.6261-0.6426-0.8483
					c-0.3416-0.261-0.7475-0.3936-1.2064-0.3936c-0.8264,0-1.4806,0.3453-1.9477,1.0263v-0.8718h-1.2047v6.7489h1.2047v-3.8372
					c0-0.5997,0.1429-1.0916,0.4246-1.462c0.2804-0.3688,0.6257-0.5481,1.056-0.5481c0.933,0,1.3864,0.6071,1.3864,1.856v3.9913
					h1.2043v-3.8372c0-0.5522,0.1503-1.0321,0.4473-1.4269c0.2949-0.3924,0.6414-0.5832,1.0589-0.5832
					c0.4894,0,0.8409,0.152,1.0445,0.4514c0.2098,0.3093,0.3164,0.8252,0.3164,1.5331v3.8628h1.2047V22.104
					C48.407,20.2698,47.6607,19.3397,46.1887,19.3397z"/>
				<path class="st0" d="M52.627,19.3397c-0.8421,0-1.5967,0.2123-2.2426,0.6307l-0.0388,0.0252v1.31l0.14-0.1206
					c0.6084-0.5237,1.2989-0.7892,2.053-0.7892c0.8198,0,1.2283,0.4973,1.2469,1.5194l-1.8647,0.2656
					c-1.4637,0.2073-2.2063,0.9578-2.2063,2.2298c0,0.5955,0.1925,1.0812,0.5724,1.4426c0.3783,0.361,0.9065,0.5439,1.5698,0.5439
					c0.821,0,1.4691-0.3403,1.9291-1.0123v0.8582h1.2047v-4.3638C54.9906,20.1943,54.1952,19.3397,52.627,19.3397z M53.7859,22.9271
					v0.5584c0,0.5365-0.1615,0.9854-0.4795,1.334c-0.3164,0.3461-0.7232,0.5216-1.2097,0.5216
					c-0.3515,0-0.6348-0.0954-0.8429-0.2833c-0.2086-0.1883-0.3098-0.425-0.3098-0.724c0-0.4101,0.1111-0.6971,0.3308-0.8533
					c0.2317-0.1648,0.5844-0.2821,1.0482-0.3482L53.7859,22.9271z"/>
				<path class="st0" d="M61.2538,20.2463c-0.4349-0.6017-1.066-0.9065-1.8783-0.9065c-0.94,0-1.6921,0.3436-2.2348,1.0214
					c-0.5377,0.6728-0.8107,1.5876-0.8107,2.7196c0,1.0007,0.2544,1.8114,0.7554,2.4095c0.5047,0.6017,1.1795,0.907,2.006,0.907
					c0.9317,0,1.6582-0.3676,2.1625-1.0936v0.4696c0,1.6809-0.7525,2.4982-2.3012,2.4982c-0.643,0-1.3303-0.204-2.0415-0.6059
					l-0.1264-0.0714v1.2506l0.0458,0.0235c0.6075,0.3131,1.3257,0.4721,2.1344,0.4721c2.3182,0,3.4936-1.2477,3.4936-3.7088v-6.1372
					h-1.2047V20.2463z M60.7557,20.9282c0.3304,0.3544,0.4981,0.7868,0.4981,1.2853v0.9701c0,0.6311-0.1768,1.1552-0.5253,1.5574
					c-0.3453,0.3981-0.8004,0.6001-1.353,0.6001c-0.5501,0-0.9796-0.2048-1.3129-0.6261c-0.3337-0.4217-0.5026-0.9949-0.5026-1.7049
					c0-0.8297,0.1768-1.4814,0.5258-1.9374c0.3482-0.4555,0.8173-0.6769,1.4348-0.6769
					C60.0177,20.3958,60.422,20.5697,60.7557,20.9282z"/>
				<path class="st0" d="M66.1235,25.142c-0.259,0-0.6034-0.0851-0.6034-0.8215v-4.8263h-1.2047v5.013
					c0,0.2916,0.0413,0.5509,0.1223,0.7711c0.0809,0.2218,0.1933,0.4097,0.3333,0.5588c0.1412,0.1507,0.3102,0.2639,0.5018,0.3362
					c0.19,0.0719,0.3952,0.1082,0.6108,0.1082c0.1516,0,0.2969-0.0099,0.4316-0.0297c0.1351-0.0194,0.2457-0.0405,0.3288-0.0628
					l0.0628-0.0169v-1.1316l-0.1103,0.0351C66.458,25.1197,66.2986,25.142,66.1235,25.142z"/>
				<path class="st0" d="M64.9304,17.9929c0.2115,0,0.394-0.0756,0.5427-0.2238c0.1487-0.1491,0.2238-0.3312,0.2238-0.5419
					c0-0.2197-0.0756-0.4052-0.2243-0.5518c-0.1483-0.1462-0.3308-0.2205-0.5423-0.2205c-0.2082,0-0.3874,0.0743-0.5332,0.221
					c-0.1462,0.1466-0.2205,0.3321-0.2205,0.5514c0,0.2197,0.0743,0.4039,0.221,0.5485
					C64.5438,17.9198,64.723,17.9929,64.9304,17.9929z"/>
				<path class="st0" d="M70.9271,19.3397c-0.8731,0-1.5657,0.3634-2.0617,1.0812v-0.9268h-1.2047v6.7489h1.2047v-3.8372
					c0-0.5803,0.164-1.0668,0.4878-1.4451c0.3246-0.3804,0.724-0.565,1.2204-0.565c0.954,0,1.4174,0.6575,1.4174,2.0101v3.8372
					h1.2047v-4.1069c0-0.8933-0.1954-1.5892-0.5807-2.0679C72.2256,19.5851,71.6573,19.3397,70.9271,19.3397z"/>
				<path class="st0" d="M86.1136,19.3397c-1.0379,0-1.8808,0.3411-2.5049,1.0139c-0.6224,0.6703-0.9383,1.5686-0.9383,2.6692
					c0,0.99,0.2932,1.8077,0.8718,2.4313c0.5798,0.6257,1.3513,0.9429,2.2934,0.9429c0.6943,0,1.3038-0.1578,1.8118-0.4683
					l0.0405-0.0248v-1.2212l-0.1363,0.1045c-0.4791,0.3676-0.997,0.5538-1.5393,0.5538c-0.641,0-1.1585-0.2152-1.5372-0.6397
					c-0.3816-0.4275-0.5749-1.0226-0.5749-1.7685c0-0.7595,0.2061-1.3794,0.6133-1.8428c0.4043-0.4609,0.9297-0.6943,1.562-0.6943
					c0.5266,0,1.0284,0.1677,1.4909,0.4985l0.1338,0.0954v-1.2964l-0.0471-0.0235C87.2098,19.4508,86.6918,19.3397,86.1136,19.3397z
					"/>
				<path class="st0" d="M90.6232,17.5151l-1.2047,0.3961v1.583h-1.111v1.0688h1.111v3.8091c0,1.3352,0.6001,2.0121,1.7829,2.0121
					c0.4126,0,0.7512-0.0731,1.0069-0.2164l0.0434-0.0244v-1.1209l-0.1363,0.1049c-0.173,0.1334-0.3829,0.2007-0.6236,0.2007
					c-0.3122,0-0.5361-0.0838-0.6658-0.2499c-0.1346-0.1726-0.2028-0.4729-0.2028-0.8925v-3.6229h1.6285v-1.0688h-1.6285V17.5151z"
					/>
				<path class="st0" d="M95.2034,25.142c-0.2589,0-0.6034-0.0851-0.6034-0.8215v-4.8263h-1.2047v5.013
					c0,0.2916,0.0413,0.5509,0.1222,0.7711c0.081,0.2218,0.1933,0.4097,0.3333,0.5588c0.1412,0.1507,0.3102,0.2639,0.5018,0.3362
					c0.19,0.0719,0.3952,0.1082,0.6108,0.1082c0.1516,0,0.297-0.0099,0.4316-0.0297c0.1351-0.0194,0.2457-0.0405,0.3288-0.0628
					l0.0628-0.0169v-1.1316l-0.1103,0.0351C95.5379,25.1197,95.3785,25.142,95.2034,25.142z"/>
				<path class="st0" d="M94.0102,17.9929c0.2115,0,0.394-0.0756,0.5427-0.2238c0.1487-0.1491,0.2238-0.3312,0.2238-0.5419
					c0-0.2197-0.0756-0.4052-0.2243-0.5518c-0.1483-0.1462-0.3308-0.2205-0.5423-0.2205c-0.2082,0-0.3874,0.0743-0.5332,0.221
					c-0.1462,0.1466-0.2205,0.3321-0.2205,0.5514c0,0.2197,0.0743,0.4039,0.221,0.5485
					C93.6237,17.9198,93.8029,17.9929,94.0102,17.9929z"/>
				<path class="st0" d="M99.6791,19.3397c-1.0288,0-1.8589,0.3226-2.4664,0.9582c-0.6063,0.6348-0.9136,1.5256-0.9136,2.6478
					c0,1.0329,0.2953,1.875,0.878,2.5024c0.5844,0.6298,1.3753,0.9491,2.3504,0.9491c1.0007,0,1.8106-0.3279,2.4074-0.9747
					c0.5947-0.6451,0.8966-1.5132,0.8966-2.5796c0-1.087-0.2804-1.951-0.8326-2.5689
					C101.4435,19.654,100.6629,19.3397,99.6791,19.3397z M101.0808,24.7104v0.0004c-0.3411,0.4184-0.8384,0.6302-1.4777,0.6302
					c-0.6282,0-1.1353-0.2172-1.5079-0.6451c-0.3758-0.432-0.5662-1.0337-0.5662-1.7887c0-0.7851,0.1887-1.4079,0.5609-1.8507
					c0.3688-0.4386,0.878-0.6608,1.5132-0.6608c0.6389,0,1.1362,0.2143,1.4777,0.6369c0.3457,0.4275,0.5208,1.0499,0.5208,1.849
					C101.6016,23.6721,101.4265,24.2875,101.0808,24.7104z"/>
				<path class="st0" d="M107.5823,19.3397c-0.8731,0-1.5657,0.3634-2.0617,1.0812v-0.9268h-1.2047v6.7489h1.2047v-3.8372
					c0-0.5803,0.164-1.0668,0.4878-1.4451c0.3246-0.3804,0.724-0.565,1.2204-0.565c0.954,0,1.4178,0.6575,1.4178,2.0101v3.8372
					h1.2035v-4.1069c0-0.8941-0.1949-1.5896-0.5799-2.0675C108.8812,19.5851,108.3129,19.3397,107.5823,19.3397z"/>
				<path class="st0" d="M116.9938,16.7312c-1.5446,0-2.832,0.5299-3.8261,1.5748c-0.9941,1.0437-1.498,2.3756-1.498,3.9586
					c0,1.5368,0.4811,2.7985,1.4298,3.7509c0.9483,0.9528,2.2141,1.4356,3.762,1.4356c1.0965,0,2.0249-0.1623,2.7605-0.4824
					l0.0508-0.0223v-0.9867l-0.121,0.0578c-0.7207,0.3444-1.6049,0.5187-2.6275,0.5187c-1.2869,0-2.3231-0.3985-3.0793-1.1849
					c-0.7574-0.7872-1.1411-1.8387-1.1411-3.1252c0-1.308,0.4047-2.4128,1.2027-3.2842c0.7954-0.8685,1.8172-1.3088,3.0368-1.3088
					c1.2667,0,2.2699,0.3676,2.9827,1.0928c0.7128,0.7256,1.0742,1.6764,1.0742,2.8253c0,0.7769-0.1479,1.417-0.4398,1.9035
					c-0.2866,0.4778-0.6335,0.7104-1.0606,0.7104c-0.4485,0-0.6662-0.4072-0.6662-1.2444c0.0021-0.0739,0.1697-2.089,0.2961-3.5985
					l0.0078-0.0917h-0.9582l-0.007,0.0768c-0.0165,0.1821-0.0297,0.3341-0.0405,0.456c-0.0888-0.1441-0.2139-0.2705-0.3746-0.3775
					c-0.2511-0.1669-0.5398-0.2515-0.8578-0.2515c-0.8153,0-1.4827,0.3345-1.9837,0.9937c-0.4948,0.6525-0.7459,1.4819-0.7459,2.464
					c0,0.75,0.1838,1.3559,0.546,1.8011c0.3659,0.4514,0.8566,0.6802,1.4575,0.6802c0.8372,0,1.4344-0.4258,1.7788-1.2675
					c0.1033,0.8417,0.591,1.2675,1.4534,1.2675c0.7364,0,1.3675-0.3411,1.8754-1.0131c0.5039-0.6649,0.7591-1.5265,0.7591-2.5602
					c0-1.4104-0.4828-2.5705-1.4348-3.4486C119.6552,17.1756,118.4401,16.7312,116.9938,16.7312z M116.8873,20.0489
					c0.7116,0,1.0577,0.4221,1.0577,1.2906c0,0.8541-0.1499,1.5479-0.446,2.0621c-0.292,0.5051-0.674,0.7508-1.1676,0.7508
					c-0.3366,0-0.5984-0.1317-0.8004-0.4027c-0.204-0.2751-0.3077-0.66-0.3077-1.1444c0-0.7294,0.1578-1.3476,0.4692-1.8374
					C116.0005,20.2839,116.3917,20.0489,116.8873,20.0489z"/>
				<path class="st0" d="M129.7894,24.5167c-0.0178,0.0644-0.0334,0.1268-0.0471,0.1867c-0.0124-0.0669-0.026-0.1293-0.0413-0.1863
					l-1.3551-5.0229h-1.075l-1.5075,4.9953c-0.019,0.0636-0.0359,0.1268-0.0504,0.1887c-0.0116-0.0636-0.0252-0.1214-0.0396-0.1739
					l-1.3551-5.0101h-1.2646l1.9894,6.6882l0.0178,0.0607h1.1614l1.4641-4.7822c0.019-0.0615,0.0359-0.1202,0.0512-0.1764
					c0.0132,0.0648,0.0281,0.1272,0.045,0.1871l1.3497,4.7714h1.2002l1.9556-6.6402l0.0322-0.1086h-1.201L129.7894,24.5167z"/>
				<path class="st0" d="M136.2215,19.3397c-1.0284,0-1.8585,0.3226-2.4664,0.9582c-0.6059,0.6344-0.9131,1.5252-0.9131,2.6478
					c0,1.0325,0.2953,1.8746,0.8776,2.5024c0.584,0.6298,1.3745,0.9491,2.35,0.9491c1.0011,0,1.811-0.3279,2.4082-0.9747
					c0.5947-0.6455,0.8962-1.5132,0.8962-2.5796c0-1.0874-0.2804-1.9514-0.8326-2.5689
					C137.9859,19.654,137.2053,19.3397,136.2215,19.3397z M137.6237,24.7108c-0.3416,0.4184-0.8388,0.6302-1.4781,0.6302
					c-0.6278,0-1.1353-0.2172-1.5083-0.6451c-0.375-0.4312-0.5654-1.0329-0.5654-1.7887c0-0.7855,0.1887-1.4083,0.5609-1.8507
					c0.368-0.4386,0.8768-0.6608,1.5128-0.6608c0.6389,0,1.1362,0.2143,1.4781,0.6369c0.3453,0.4283,0.5204,1.0503,0.5204,1.849
					C138.1441,23.6713,137.969,24.2867,137.6237,24.7108z"/>
				<path class="st0" d="M143.6961,19.3786c-0.3936,0-0.7542,0.1375-1.0717,0.4089c-0.2292,0.1962-0.4171,0.451-0.5609,0.7599
					v-1.0532h-1.2043v6.7489h1.2043v-3.4387c0-0.7112,0.1445-1.2787,0.4299-1.6867c0.2821-0.4035,0.622-0.5997,1.0383-0.5997
					c0.3197,0,0.5654,0.0653,0.731,0.1941l0.1367,0.1061v-1.3212l-0.052-0.0219C144.1925,19.4104,143.9794,19.3786,143.6961,19.3786
					z"/>
				<polygon class="st0" points="147.6881,22.7528 150.7662,19.4942 149.1754,19.4942 146.5578,22.3993 146.5578,16.3327 
					145.3534,16.3327 145.3534,26.2431 146.5578,26.2431 146.5578,23.1898 149.2889,26.215 149.3141,26.2431 151,26.2431 				"/>
			</g>
		</g>
	</g>
</g>
</svg>
